<?xml version="1.0" standalone="no"?>
<!DOCTYPE svg PUBLIC "-//W3C//DTD SVG 20010904//EN"
 "http://www.w3.org/TR/2001/REC-SVG-20010904/DTD/svg10.dtd">
<svg version="1.0" xmlns="http://www.w3.org/2000/svg"
 width="700.000000pt" height="700.000000pt" viewBox="0 0 700.000000 700.000000"
 preserveAspectRatio="xMidYMid meet">
<metadata>
Created by potrace 1.11, written by Peter Selinger 2001-2013
</metadata>
<g transform="translate(0.000000,700.000000) scale(0.100000,-0.100000)"
fill="#000000" stroke="none">
<path d="M0 3500 l0 -3500 3500 0 3500 0 0 3500 0 3500 -3500 0 -3500 0 0
-3500z m3633 1531 l441 -965 38 80 c20 43 113 244 205 447 l168 367 165 -2
164 -3 807 -1550 806 -1550 -175 -3 c-97 -1 -179 1 -182 5 -4 5 -326 628 -715
1386 -390 757 -709 1376 -710 1375 -1 -2 -285 -625 -630 -1385 l-629 -1383
-164 0 c-127 0 -163 3 -159 13 3 6 188 410 412 897 224 487 412 899 417 915 9
27 -29 117 -424 996 -238 532 -437 967 -442 968 -4 1 -483 -1042 -1064 -2318
l-1055 -2321 -169 0 c-157 0 -168 1 -160 18 5 9 521 1134 1148 2500 l1139
2482 164 -2 163 -3 441 -964z"/>
</g>
</svg>
