<?xml version="1.0" encoding="UTF-8" standalone="no"?>
<!DOCTYPE svg PUBLIC "-//W3C//DTD SVG 1.1//EN" "http://www.w3.org/Graphics/SVG/1.1/DTD/svg11.dtd">
<svg width="100%" height="100%" viewBox="0 0 310 60" version="1.1" xmlns="http://www.w3.org/2000/svg" xmlns:xlink="http://www.w3.org/1999/xlink" xml:space="preserve" xmlns:serif="http://www.serif.com/" style="fill-rule:evenodd;clip-rule:evenodd;stroke-linejoin:round;stroke-miterlimit:2;">
    <g transform="matrix(1,0,0,1,-120,-155)">
        <g id="Layer-1" serif:id="Layer 1">
            <g>
                <g transform="matrix(1,0,0,1,168.61,196.699)">
                    <path d="M0,-22.05L-9.127,-2.99L-15.617,-22.05L-17.787,-22.05L-24.367,-3.09L-33.255,-22.05L-35.645,-22.05L-25.697,0L-23.267,0L-16.777,-18.8L-10.327,0L-7.867,0L2.23,-22.05L0,-22.05Z" style="fill:rgb(206,212,218);fill-rule:nonzero;"/>
                </g>
                <g transform="matrix(1,0,0,1,199.471,187.418)">
                    <path d="M0,-4.837L-6.991,-20.119L-9.281,-20.119L-25.541,15.282L-23.151,15.282L-8.151,-17.699L-1.169,-2.129C-0.937,-3.096 -0.545,-4.016 0,-4.837" style="fill:rgb(206,212,218);fill-rule:nonzero;"/>
                </g>
                <g transform="matrix(1,0,0,1,203.956,196.699)">
                    <path d="M0,-22.05L-2.29,-22.05L-4.36,-17.53L-5.62,-14.81L-12.42,0L-10.09,0L-1.16,-19.63L8.94,0L11.47,0L0,-22.05Z" style="fill:rgb(206,212,218);fill-rule:nonzero;"/>
                </g>
                <g transform="matrix(1,0,0,1,242.875,196.699)">
                    <path d="M0,-22.05L0,-4.16L-14.2,-22.05L-16.12,-22.05L-16.12,0L-13.79,0L-13.79,-17.89L0.38,0L2.3,0L2.3,-22.05L0,-22.05Z" style="fill:rgb(206,212,218);fill-rule:nonzero;"/>
                </g>
                <g transform="matrix(1,0,0,1,273.746,181)">
                    <path d="M0,9.349C-0.79,10.709 -1.92,11.77 -3.37,12.53C-4.81,13.299 -6.5,13.679 -8.44,13.679L-14.96,13.679L-14.96,-4.331L-8.44,-4.331C-6.5,-4.331 -4.81,-3.951 -3.37,-3.181C-1.92,-2.421 -0.79,-1.36 0,-0.001C0.8,1.349 1.2,2.91 1.2,4.68C1.2,6.44 0.8,7.999 0,9.349M2.02,-1.041C1.03,-2.711 -0.35,-4.01 -2.14,-4.951C-3.92,-5.88 -5.98,-6.351 -8.31,-6.351L-17.29,-6.351L-17.29,15.7L-8.31,15.7C-5.98,15.7 -3.92,15.23 -2.14,14.299C-0.35,13.36 1.03,12.059 2.02,10.389C3.01,8.719 3.5,6.82 3.5,4.68C3.5,2.53 3.01,0.629 2.02,-1.041" style="fill:rgb(206,212,218);fill-rule:nonzero;"/>
                </g>
                <g transform="matrix(1,0,0,1,0,1.348)">
                    <path d="M288.525,185.141L302.255,185.141L302.255,183.161L288.525,183.161L288.525,185.141ZM290.545,174.311L288.525,174.311L288.525,194.341L290.545,194.341L290.545,174.311ZM288.525,175.321L303.635,175.321L303.635,173.301L288.525,173.301L288.525,175.321ZM288.525,195.351L304.115,195.351L304.115,193.33L288.525,193.33L288.525,195.351Z" style="fill:rgb(206,212,218);fill-rule:nonzero;"/>
                </g>
                <g transform="matrix(1,0,0,1,323.106,183.629)">
                    <path d="M0,4.09L-5.86,4.09L-5.86,-6.96L0,-6.96C2.18,-6.96 3.85,-6.48 5.01,-5.53C6.16,-4.57 6.74,-3.2 6.74,-1.42C6.74,0.32 6.16,1.68 5.01,2.641C3.85,3.611 2.18,4.09 0,4.09M4.03,5.51C5.65,4.99 6.89,4.13 7.76,2.941C8.63,1.76 9.07,0.3 9.07,-1.42C9.07,-3.77 8.27,-5.619 6.68,-6.96C5.08,-8.31 2.88,-8.98 0.06,-8.98L-8.19,-8.98L-8.19,13.07L-5.86,13.07L-5.86,6.08L0.06,6.08C0.67,6.08 1.26,6.05 1.83,5.981L6.87,13.07L9.42,13.07L4.03,5.51Z" style="fill:rgb(206,212,218);fill-rule:nonzero;"/>
                </g>
                <g transform="matrix(1,0,0,1,351.835,183.629)">
                    <path d="M0,4.09L-5.859,4.09L-5.859,-6.96L0,-6.96C2.181,-6.96 3.851,-6.48 5.011,-5.53C6.16,-4.57 6.74,-3.2 6.74,-1.42C6.74,0.32 6.16,1.68 5.011,2.641C3.851,3.611 2.181,4.09 0,4.09M4.03,5.51C5.65,4.99 6.891,4.13 7.761,2.941C8.631,1.76 9.07,0.3 9.07,-1.42C9.07,-3.77 8.271,-5.619 6.681,-6.96C5.08,-8.31 2.87,-8.98 0.061,-8.98L-8.189,-8.98L-8.189,13.07L-5.859,13.07L-5.859,6.08L0.061,6.08C0.671,6.08 1.261,6.05 1.82,5.981L6.86,13.07L9.421,13.07L4.03,5.51Z" style="fill:rgb(206,212,218);fill-rule:nonzero;"/>
                </g>
                <g transform="matrix(1,0,0,1,388.365,196.889)">
                    <path d="M0,-22.24L0,-9.699C0,-7.14 -0.58,-5.23 -1.729,-3.97C-2.88,-2.71 -4.56,-2.08 -6.77,-2.08C-8.95,-2.08 -10.62,-2.71 -11.78,-3.97C-12.93,-5.23 -13.51,-7.14 -13.51,-9.699L-13.51,-22.24L-15.84,-22.24L-15.84,-9.61C-15.84,-6.48 -15.04,-4.1 -13.45,-2.46C-11.85,-0.82 -9.62,0 -6.77,0C-3.91,0 -1.689,-0.82 -0.109,-2.46C1.48,-4.1 2.271,-6.48 2.271,-9.61L2.271,-22.24L0,-22.24Z" style="fill:rgb(206,212,218);fill-rule:nonzero;"/>
                </g>
                <g transform="matrix(1,0,0,1,417.035,194.819)">
                    <path d="M0,-18.02L0,-20.03L-15.12,-20.03L-15.12,2.01L-12.79,2.01L-12.79,-7.339L-1.39,-7.339L-1.39,-9.36L-12.79,-9.36L-12.79,-18.02L0,-18.02Z" style="fill:rgb(206,212,218);fill-rule:nonzero;"/>
                </g>
            </g>
        </g>
    </g>
</svg>
