<?xml version="1.0" encoding="UTF-8" standalone="no"?>
<!DOCTYPE svg PUBLIC "-//W3C//DTD SVG 1.1//EN" "http://www.w3.org/Graphics/SVG/1.1/DTD/svg11.dtd">
<svg width="100%" height="100%" viewBox="0 0 2417 584" version="1.1" xmlns="http://www.w3.org/2000/svg" xmlns:xlink="http://www.w3.org/1999/xlink" xml:space="preserve" xmlns:serif="http://www.serif.com/" style="fill-rule:evenodd;clip-rule:evenodd;stroke-linejoin:round;stroke-miterlimit:2;">
    <g transform="matrix(7.70919,0,0,7.70919,-1031.25,-784.325)">
        <g>
            <g transform="matrix(1,0,0,1,180.23,156.039)">
                <path d="M0,-22.051L-9.127,-2.99L-15.617,-22.051L-17.787,-22.051L-24.367,-3.091L-33.256,-22.051L-35.646,-22.051L-25.697,0L-23.267,0L-16.777,-18.801L-10.327,0L-7.867,0L2.229,-22.051L0,-22.051Z" style="fill:rgb(233,236,239);fill-rule:nonzero;"/>
            </g>
            <g transform="matrix(1,0,0,1,219.371,139.466)">
                <path d="M0,0.214C0.021,0.151 0.052,0.093 0.076,0.032L-11.6,-25.497L-13.89,-25.497L-37.409,25.711L-34.948,25.711L-12.76,-23.077L-1.205,2.714C-0.732,1.871 -0.258,1.051 0,0.214" style="fill:rgb(233,236,239);fill-rule:nonzero;"/>
            </g>
            <g transform="matrix(1,0,0,1,223.353,156.039)">
                <path d="M0,-22.051L-2.29,-22.051L-4.36,-17.53L-5.62,-14.811L-12.42,0L-10.09,0L-1.16,-19.63L8.94,0L11.47,0L0,-22.051Z" style="fill:rgb(233,236,239);fill-rule:nonzero;"/>
            </g>
            <g transform="matrix(1,0,0,1,262.273,156.039)">
                <path d="M0,-22.051L0,-4.16L-14.2,-22.051L-16.12,-22.051L-16.12,0L-13.79,0L-13.79,-17.891L0.38,0L2.3,0L2.3,-22.051L0,-22.051Z" style="fill:rgb(233,236,239);fill-rule:nonzero;"/>
            </g>
            <g transform="matrix(1,0,0,1,293.143,140.339)">
                <path d="M0,9.349C-0.79,10.709 -1.92,11.769 -3.37,12.53C-4.81,13.299 -6.5,13.679 -8.44,13.679L-14.96,13.679L-14.96,-4.331L-8.44,-4.331C-6.5,-4.331 -4.81,-3.951 -3.37,-3.18C-1.92,-2.421 -0.79,-1.361 0,-0.001C0.8,1.349 1.2,2.91 1.2,4.679C1.2,6.439 0.8,7.999 0,9.349M2.021,-1.041C1.03,-2.711 -0.35,-4.01 -2.14,-4.951C-3.92,-5.88 -5.979,-6.351 -8.31,-6.351L-17.29,-6.351L-17.29,15.7L-8.31,15.7C-5.979,15.7 -3.92,15.229 -2.14,14.299C-0.35,13.359 1.03,12.059 2.021,10.389C3.01,8.719 3.5,6.82 3.5,4.679C3.5,2.53 3.01,0.629 2.021,-1.041" style="fill:rgb(233,236,239);fill-rule:nonzero;"/>
            </g>
            <g transform="matrix(1,0,0,1,16.7679,-18.1124)">
                <path d="M291.155,163.941L304.884,163.941L304.884,161.961L291.155,161.961L291.155,163.941ZM293.175,153.111L291.155,153.111L291.155,173.14L293.175,173.14L293.175,153.111ZM291.155,154.121L306.264,154.121L306.264,152.1L291.155,152.1L291.155,154.121ZM291.155,174.151L306.745,174.151L306.745,172.13L291.155,172.13L291.155,174.151Z" style="fill:rgb(233,236,239);fill-rule:nonzero;"/>
            </g>
            <g transform="matrix(1,0,0,1,342.503,142.969)">
                <path d="M0,4.09L-5.86,4.09L-5.86,-6.96L0,-6.96C2.18,-6.96 3.85,-6.48 5.01,-5.53C6.16,-4.57 6.739,-3.2 6.739,-1.42C6.739,0.32 6.16,1.68 5.01,2.64C3.85,3.611 2.18,4.09 0,4.09M4.029,5.51C5.649,4.99 6.89,4.13 7.76,2.941C8.63,1.76 9.069,0.3 9.069,-1.42C9.069,-3.77 8.27,-5.62 6.68,-6.96C5.08,-8.309 2.88,-8.98 0.06,-8.98L-8.19,-8.98L-8.19,13.07L-5.86,13.07L-5.86,6.08L0.06,6.08C0.67,6.08 1.26,6.05 1.83,5.98L6.87,13.07L9.42,13.07L4.029,5.51Z" style="fill:rgb(233,236,239);fill-rule:nonzero;"/>
            </g>
            <g transform="matrix(1,0,0,1,371.233,142.969)">
                <path d="M0,4.09L-5.859,4.09L-5.859,-6.96L0,-6.96C2.181,-6.96 3.851,-6.48 5.01,-5.53C6.16,-4.57 6.74,-3.2 6.74,-1.42C6.74,0.32 6.16,1.68 5.01,2.64C3.851,3.611 2.181,4.09 0,4.09M4.03,5.51C5.65,4.99 6.891,4.13 7.76,2.941C8.63,1.76 9.07,0.3 9.07,-1.42C9.07,-3.77 8.271,-5.62 6.681,-6.96C5.08,-8.309 2.87,-8.98 0.061,-8.98L-8.189,-8.98L-8.189,13.07L-5.859,13.07L-5.859,6.08L0.061,6.08C0.67,6.08 1.26,6.05 1.82,5.98L6.86,13.07L9.42,13.07L4.03,5.51Z" style="fill:rgb(233,236,239);fill-rule:nonzero;"/>
            </g>
            <g transform="matrix(1,0,0,1,407.763,156.228)">
                <path d="M0,-22.24L0,-9.7C0,-7.139 -0.58,-5.229 -1.73,-3.969C-2.88,-2.71 -4.561,-2.08 -6.771,-2.08C-8.95,-2.08 -10.62,-2.71 -11.78,-3.969C-12.93,-5.229 -13.51,-7.139 -13.51,-9.7L-13.51,-22.24L-15.84,-22.24L-15.84,-9.609C-15.84,-6.479 -15.04,-4.099 -13.45,-2.46C-11.85,-0.819 -9.62,0 -6.771,0C-3.91,0 -1.69,-0.819 -0.11,-2.46C1.479,-4.099 2.27,-6.479 2.27,-9.609L2.27,-22.24L0,-22.24Z" style="fill:rgb(233,236,239);fill-rule:nonzero;"/>
            </g>
            <g transform="matrix(1,0,0,1,436.433,154.159)">
                <path d="M0,-18.02L0,-20.03L-15.12,-20.03L-15.12,2.01L-12.79,2.01L-12.79,-7.34L-1.39,-7.34L-1.39,-9.36L-12.79,-9.36L-12.79,-18.02L0,-18.02Z" style="fill:rgb(233,236,239);fill-rule:nonzero;"/>
            </g>
        </g>
    </g>
</svg>
